# Blender v3.3.1 OBJ File: ''
# www.blender.org
mtllib portal.mtl
o 円柱
v -1.000000 0.000000 0.400000
v -1.000000 0.000000 -0.400000
v -0.980785 -0.195090 0.400000
v -0.980785 -0.195090 -0.400000
v -0.923880 -0.382683 0.400000
v -0.923880 -0.382683 -0.400000
v -0.831470 -0.555570 0.400000
v -0.831470 -0.555570 -0.400000
v -0.707107 -0.707107 0.400000
v -0.707107 -0.707107 -0.400000
v -0.555570 -0.831470 0.400000
v -0.555570 -0.831470 -0.400000
v -0.382683 -0.923880 0.400000
v -0.382683 -0.923880 -0.400000
v -0.195090 -0.980785 0.400000
v -0.195090 -0.980785 -0.400000
v -0.000000 -1.000000 0.400000
v -0.000000 -1.000000 -0.400000
v 0.195090 -0.980785 0.400000
v 0.195090 -0.980785 -0.400000
v 0.382683 -0.923880 0.400000
v 0.382683 -0.923880 -0.400000
v 0.555570 -0.831470 0.400000
v 0.555570 -0.831470 -0.400000
v 0.707107 -0.707107 0.400000
v 0.707107 -0.707107 -0.400000
v 0.831470 -0.555570 0.400000
v 0.831470 -0.555570 -0.400000
v 0.923880 -0.382683 0.400000
v 0.923880 -0.382683 -0.400000
v 0.980785 -0.195090 0.400000
v 0.980785 -0.195090 -0.400000
v 1.000000 -0.000000 0.400000
v 1.000000 -0.000000 -0.400000
v 0.980785 0.195090 0.400000
v 0.980785 0.195090 -0.400000
v 0.923880 0.382683 0.400000
v 0.923880 0.382683 -0.400000
v 0.831470 0.555570 0.400000
v 0.831470 0.555570 -0.400000
v 0.707107 0.707107 0.400000
v 0.707107 0.707107 -0.400000
v 0.555570 0.831470 0.400000
v 0.555570 0.831470 -0.400000
v 0.382683 0.923880 0.400000
v 0.382683 0.923880 -0.400000
v 0.195090 0.980785 0.400000
v 0.195090 0.980785 -0.400000
v 0.000000 1.000000 0.400000
v 0.000000 1.000000 -0.400000
v -0.195090 0.980785 0.400000
v -0.195090 0.980785 -0.400000
v -0.382683 0.923880 0.400000
v -0.382683 0.923880 -0.400000
v -0.555570 0.831470 0.400000
v -0.555570 0.831470 -0.400000
v -0.707107 0.707107 0.400000
v -0.707107 0.707107 -0.400000
v -0.831470 0.555570 0.400000
v -0.831470 0.555570 -0.400000
v -0.923880 0.382683 0.400000
v -0.923880 0.382683 -0.400000
v -0.980785 0.195090 0.400000
v -0.980785 0.195090 -0.400000
v -0.990393 -0.097545 -0.400000
v -0.952332 -0.288887 -0.400000
v -0.877675 -0.469127 -0.400000
v -0.769288 -0.631338 -0.400000
v -0.631339 -0.769288 -0.400000
v -0.469127 -0.877675 -0.400000
v -0.288887 -0.952332 -0.400000
v -0.097545 -0.990393 -0.400000
v 0.097545 -0.990393 -0.400000
v 0.288887 -0.952332 -0.400000
v 0.469127 -0.877675 -0.400000
v 0.631338 -0.769288 -0.400000
v 0.769288 -0.631339 -0.400000
v 0.877675 -0.469127 -0.400000
v 0.952332 -0.288887 -0.400000
v 0.990393 -0.097545 -0.400000
v 0.990393 0.097545 -0.400000
v 0.952332 0.288887 -0.400000
v 0.877675 0.469127 -0.400000
v 0.769288 0.631338 -0.400000
v 0.631339 0.769288 -0.400000
v 0.469127 0.877675 -0.400000
v 0.288887 0.952332 -0.400000
v 0.097545 0.990393 -0.400000
v -0.097545 0.990393 -0.400000
v -0.288887 0.952332 -0.400000
v -0.469127 0.877675 -0.400000
v -0.631338 0.769288 -0.400000
v -0.769288 0.631339 -0.400000
v -0.877675 0.469127 -0.400000
v -0.952332 0.288887 -0.400000
v -0.990393 0.097545 -0.400000
v -0.000000 -0.730586 -0.400000
v 0.000000 0.730586 -0.400000
v 0.142530 -0.716548 -0.400000
v -0.142530 0.716548 -0.400000
v 0.279583 -0.674973 -0.400000
v -0.279583 0.674973 -0.400000
v -0.405892 0.607460 -0.400000
v 0.405892 -0.607460 -0.400000
v -0.516602 0.516602 -0.400000
v 0.516602 -0.516602 -0.400000
v 0.607460 -0.405892 -0.400000
v -0.607460 0.405892 -0.400000
v -0.674973 0.279583 -0.400000
v 0.674973 -0.279583 -0.400000
v -0.716548 0.142530 -0.400000
v 0.716548 -0.142530 -0.400000
v 0.730586 0.000000 -0.400000
v -0.730586 0.000000 -0.400000
v 0.716548 0.142530 -0.400000
v -0.716548 -0.142530 -0.400000
v 0.674973 0.279583 -0.400000
v -0.674973 -0.279583 -0.400000
v 0.607460 0.405892 -0.400000
v -0.607460 -0.405892 -0.400000
v 0.516602 0.516602 -0.400000
v -0.516602 -0.516602 -0.400000
v -0.405892 -0.607460 -0.400000
v 0.405892 0.607460 -0.400000
v -0.279583 -0.674973 -0.400000
v 0.279583 0.674973 -0.400000
v -0.142530 -0.716548 -0.400000
v 0.142530 0.716548 -0.400000
v -0.000000 0.000000 0.318656
v -0.000000 -0.456146 0.318656
v 0.000000 0.456146 0.318656
v 0.088990 -0.447381 0.318656
v -0.088990 0.447381 0.318656
v 0.174559 -0.421424 0.318656
v -0.174559 0.421424 0.318656
v -0.253421 0.379271 0.318656
v 0.253421 -0.379271 0.318656
v -0.322544 0.322544 0.318656
v 0.322544 -0.322544 0.318656
v 0.379271 -0.253421 0.318656
v -0.379271 0.253421 0.318656
v -0.421424 0.174560 0.318656
v 0.421424 -0.174559 0.318656
v -0.447381 0.088990 0.318656
v 0.447381 -0.088990 0.318656
v 0.456146 0.000000 0.318656
v -0.456146 0.000000 0.318656
v 0.447381 0.088990 0.318656
v -0.447381 -0.088989 0.318656
v 0.421424 0.174560 0.318656
v -0.421424 -0.174559 0.318656
v 0.379271 0.253421 0.318656
v -0.379271 -0.253421 0.318656
v 0.322544 0.322544 0.318656
v -0.322544 -0.322544 0.318656
v -0.253421 -0.379271 0.318656
v 0.253421 0.379271 0.318656
v -0.174559 -0.421424 0.318656
v 0.174559 0.421424 0.318656
v -0.088990 -0.447381 0.318656
v 0.088990 0.447381 0.318656
vt 0.353081 0.345712
vt 0.341200 0.346642
vt 0.341200 0.004845
vt 0.570584 0.692354
vt 0.558703 0.691423
vt 0.558703 0.349625
vt 0.544732 0.690692
vt 0.530761 0.689961
vt 0.530761 0.348163
vt 0.515237 0.689457
vt 0.499714 0.688954
vt 0.499714 0.347156
vt 0.483234 0.688697
vt 0.466754 0.688440
vt 0.466754 0.346642
vt 0.449951 0.688440
vt 0.433149 0.688440
vt 0.433149 0.346642
vt 0.416669 0.688697
vt 0.400189 0.688954
vt 0.400189 0.347156
vt 0.384665 0.689457
vt 0.369142 0.689961
vt 0.369142 0.348163
vt 0.355171 0.690692
vt 0.341200 0.691423
vt 0.341200 0.349625
vt 0.809759 0.344050
vt 0.795788 0.343319
vt 0.795788 0.001521
vt 0.780264 0.342815
vt 0.764741 0.342311
vt 0.764741 0.000514
vt 0.748261 0.342054
vt 0.731781 0.341798
vt 0.731781 0.000000
vt 0.714979 0.341798
vt 0.698176 0.341798
vt 0.698176 0.000000
vt 0.681696 0.342054
vt 0.665217 0.342311
vt 0.665217 0.000514
vt 0.649693 0.342815
vt 0.634169 0.343319
vt 0.634169 0.001521
vt 0.620198 0.344050
vt 0.606228 0.344781
vt 0.606228 0.002983
vt 0.596436 0.349235
vt 0.610407 0.349966
vt 0.610407 0.691764
vt 0.625930 0.350470
vt 0.641454 0.350973
vt 0.641454 0.692771
vt 0.657934 0.351230
vt 0.674414 0.351487
vt 0.674414 0.693285
vt 0.691216 0.351487
vt 0.708019 0.351487
vt 0.708019 0.693285
vt 0.724499 0.351230
vt 0.740979 0.350973
vt 0.740979 0.692771
vt 0.756502 0.350470
vt 0.772026 0.349966
vt 0.772026 0.691764
vt 0.785997 0.349235
vt 0.799968 0.348504
vt 0.799968 0.690301
vt 0.811849 0.347573
vt 0.823730 0.346642
vt 0.823730 0.688440
vt 0.594346 0.345712
vt 0.582465 0.344781
vt 0.582465 0.002983
vt 0.568494 0.344050
vt 0.554523 0.343319
vt 0.554523 0.001521
vt 0.539000 0.342815
vt 0.523476 0.342311
vt 0.523476 0.000514
vt 0.506996 0.342054
vt 0.490516 0.341798
vt 0.490517 0.000000
vt 0.473714 0.341798
vt 0.456911 0.341798
vt 0.456911 0.000000
vt 0.440431 0.342054
vt 0.423952 0.342311
vt 0.423952 0.000514
vt 0.019416 0.251409
vt 0.060147 0.229638
vt 0.028751 0.265380
vt 0.408428 0.342815
vt 0.392904 0.343319
vt 0.392904 0.001521
vt 0.378934 0.344050
vt 0.364963 0.344781
vt 0.364963 0.002983
vt 0.341200 0.494998
vt 0.187403 0.682400
vt 0.000000 0.528603
vt 0.137318 0.003278
vt 0.134245 0.050752
vt 0.120838 0.006556
vt 0.220362 0.334644
vt 0.206956 0.290448
vt 0.235886 0.328214
vt 0.251409 0.321784
vt 0.229638 0.281053
vt 0.265380 0.312449
vt 0.956919 0.313290
vt 0.925834 0.623396
vt 0.932842 0.312729
vt 0.279351 0.303114
vt 0.250052 0.267413
vt 0.291233 0.291233
vt 0.841101 0.314201
vt 0.857709 0.625080
vt 0.823730 0.315427
vt 0.844135 0.001661
vt 0.855965 0.312540
vt 0.823730 0.002887
vt 0.303114 0.279351
vt 0.267413 0.250052
vt 0.312449 0.265380
vt 0.915458 0.937152
vt 0.925881 0.626206
vt 0.939538 0.936777
vt 0.321784 0.251410
vt 0.281053 0.229638
vt 0.328214 0.235886
vt 0.334644 0.220362
vt 0.290448 0.206956
vt 0.337922 0.203883
vt 0.884210 0.312729
vt 0.881305 0.623746
vt 0.861522 0.313290
vt 0.866827 0.936777
vt 0.895518 0.626441
vt 0.890906 0.937152
vt 0.341200 0.187403
vt 0.295238 0.182876
vt 0.341200 0.170600
vt 0.962220 0.936041
vt 0.952788 0.625080
vt 0.982634 0.934972
vt 0.341200 0.153797
vt 0.295238 0.158324
vt 0.337922 0.137318
vt 0.334644 0.120838
vt 0.290448 0.134245
vt 0.328214 0.105314
vt 0.037774 0.994210
vt 0.074114 0.684376
vt 0.060457 0.994946
vt 0.321784 0.089791
vt 0.281053 0.111562
vt 0.312449 0.075820
vt 0.133168 0.994946
vt 0.133674 0.683916
vt 0.155851 0.994210
vt 0.303114 0.061849
vt 0.267413 0.091148
vt 0.291233 0.049968
vt 0.038086 0.279351
vt 0.073787 0.250052
vt 0.049968 0.291233
vt 0.279351 0.038086
vt 0.250052 0.073787
vt 0.265380 0.028751
vt 0.061849 0.303114
vt 0.091148 0.267413
vt 0.075820 0.312449
vt 0.251410 0.019416
vt 0.229638 0.060147
vt 0.235886 0.012986
vt 0.089791 0.321784
vt 0.111562 0.281053
vt 0.105314 0.328214
vt 0.120838 0.334644
vt 0.134245 0.290448
vt 0.137318 0.337922
vt 0.220362 0.006556
vt 0.206956 0.050752
vt 0.203883 0.003278
vt 0.153797 0.341200
vt 0.158324 0.295238
vt 0.170600 0.341200
vt 0.187403 0.000000
vt 0.182876 0.045962
vt 0.170600 0.000000
vt 0.187403 0.341200
vt 0.182876 0.295238
vt 0.203882 0.337922
vt 0.153797 0.000000
vt 0.158324 0.045962
vt 0.962208 0.000750
vt 0.928260 0.310856
vt 0.939520 0.000189
vt 0.866811 0.000750
vt 0.868705 0.311775
vt 0.979595 0.314201
vt 0.940866 0.623746
vt 0.084537 0.995321
vt 0.104477 0.684610
vt 0.109088 0.995321
vt 1.000000 0.002887
vt 0.955175 0.311775
vt 0.982629 0.001661
vt 0.890887 0.000189
vt 0.913224 0.310737
vt 0.897896 0.310856
vt 0.910506 0.623277
vt 0.908292 0.312540
vt 0.823730 0.934972
vt 0.866321 0.625747
vt 0.844144 0.936041
vt 0.940043 0.625747
vt 0.000000 0.991782
vt 0.047206 0.683249
vt 0.017361 0.993142
vt 0.119511 0.684376
vt 0.868555 0.624315
vt 0.050752 0.206956
vt 0.012986 0.235886
vt 0.006556 0.220362
vt 1.000000 0.315427
vt 0.955024 0.624315
vt 0.045962 0.182876
vt 0.003278 0.203882
vt 0.000000 0.187403
vt 0.146419 0.683249
vt 0.176265 0.993142
vt 0.915438 0.000000
vt 0.045962 0.158324
vt 0.000000 0.170600
vt 0.000000 0.153797
vt 0.880483 0.626207
vt 0.050752 0.134245
vt 0.003278 0.137318
vt 0.006556 0.120838
vt 0.060147 0.111562
vt 0.012986 0.105314
vt 0.019416 0.089791
vt 0.059952 0.683916
vt 0.942425 0.311206
vt 0.073787 0.091148
vt 0.028751 0.075820
vt 0.038086 0.061849
vt 0.882864 0.311206
vt 0.091148 0.073787
vt 0.049968 0.049968
vt 0.061849 0.038086
vt 0.111562 0.060147
vt 0.075820 0.028751
vt 0.089791 0.019416
vt 0.910847 0.626441
vt 0.105314 0.012986
vt 0.089148 0.684610
vt 0.157258 0.682400
vt 0.193625 0.991782
vt 0.895470 0.623396
vt 0.419019 0.771103
vt 0.382158 0.702141
vt 0.396320 0.696275
vt 0.369412 0.710658
vt 0.358573 0.721497
vt 0.350057 0.734242
vt 0.344191 0.748404
vt 0.341200 0.763439
vt 0.341200 0.778768
vt 0.344191 0.793802
vt 0.350057 0.807964
vt 0.411354 0.693285
vt 0.426683 0.848922
vt 0.441718 0.845931
vt 0.426683 0.693285
vt 0.411354 0.848922
vt 0.441717 0.696275
vt 0.396320 0.845931
vt 0.382158 0.840065
vt 0.455880 0.702141
vt 0.369412 0.831549
vt 0.468625 0.710657
vt 0.358573 0.820710
vt 0.479464 0.721497
vt 0.487980 0.734242
vt 0.493847 0.748404
vt 0.496837 0.763439
vt 0.496837 0.778767
vt 0.493847 0.793802
vt 0.487981 0.807964
vt 0.479464 0.820709
vt 0.468625 0.831549
vt 0.455880 0.840065
vt 0.582465 0.351487
vt 0.582465 0.693285
vt 0.823730 0.002983
vt 0.823730 0.344781
vt 0.582465 0.690301
vt 0.582465 0.348504
vt 0.606228 0.004845
vt 0.606228 0.346642
vt 0.000000 0.494998
vt 0.006556 0.462038
vt 0.019416 0.430991
vt 0.038086 0.403049
vt 0.061849 0.379286
vt 0.089791 0.360616
vt 0.120838 0.347756
vt 0.153797 0.341200
vt 0.187403 0.341200
vt 0.220362 0.347756
vt 0.251410 0.360616
vt 0.279351 0.379287
vt 0.303114 0.403049
vt 0.321784 0.430991
vt 0.334644 0.462038
vt 0.341200 0.528603
vt 0.334644 0.561562
vt 0.321784 0.592610
vt 0.303114 0.620551
vt 0.279351 0.644314
vt 0.251409 0.662984
vt 0.220362 0.675844
vt 0.153797 0.682400
vt 0.120838 0.675844
vt 0.089791 0.662984
vt 0.061849 0.644314
vt 0.038086 0.620551
vt 0.019416 0.592610
vt 0.006556 0.561562
vt 0.966021 0.312540
vt 0.853576 0.625080
vt 0.036367 0.682400
vt 0.967764 0.625080
vn -0.9952 -0.0980 0.0000
vn -0.9569 -0.2903 0.0000
vn -0.8819 -0.4714 0.0000
vn -0.7730 -0.6344 0.0000
vn -0.6344 -0.7730 0.0000
vn -0.4714 -0.8819 0.0000
vn -0.2903 -0.9569 0.0000
vn -0.0980 -0.9952 0.0000
vn 0.0980 -0.9952 0.0000
vn 0.2903 -0.9569 0.0000
vn 0.4714 -0.8819 0.0000
vn 0.6344 -0.7730 0.0000
vn 0.7730 -0.6344 0.0000
vn 0.8819 -0.4714 0.0000
vn 0.9569 -0.2903 0.0000
vn 0.9952 -0.0980 0.0000
vn 0.9952 0.0980 0.0000
vn 0.9569 0.2903 0.0000
vn 0.8819 0.4714 0.0000
vn 0.7730 0.6344 0.0000
vn 0.6344 0.7730 0.0000
vn 0.4714 0.8819 0.0000
vn 0.2903 0.9569 0.0000
vn 0.0980 0.9952 -0.0000
vn -0.0980 0.9952 0.0000
vn -0.2903 0.9569 0.0000
vn -0.4714 0.8819 0.0000
vn -0.6344 0.7730 0.0000
vn -0.7730 0.6344 0.0000
vn -0.8819 0.4714 0.0000
vn -0.0000 -0.0000 -1.0000
vn -0.9569 0.2903 0.0000
vn -0.9952 0.0980 0.0000
vn -0.0000 0.0000 1.0000
vn 0.8244 0.4406 -0.3553
vn 0.0916 0.9303 -0.3553
vn 0.0916 -0.9303 -0.3553
vn 0.8244 -0.4406 -0.3553
vn 0.4406 0.8244 -0.3553
vn 0.5930 -0.7226 -0.3553
vn 0.9303 -0.0916 -0.3553
vn -0.4406 0.8244 -0.3553
vn -0.8945 0.2713 -0.3553
vn -0.7226 -0.5930 -0.3553
vn -0.0916 -0.9303 -0.3553
vn 0.8945 0.2713 -0.3553
vn -0.7226 0.5930 -0.3553
vn -0.8945 -0.2713 -0.3553
vn -0.4406 -0.8244 -0.3553
vn 0.7226 0.5930 -0.3553
vn 0.2713 -0.8945 -0.3553
vn 0.8945 -0.2713 -0.3553
vn -0.0916 0.9303 -0.3553
vn -0.8244 0.4406 -0.3553
vn 0.2713 0.8945 -0.3553
vn 0.9303 0.0916 -0.3553
vn -0.9303 0.0916 -0.3553
vn -0.5930 -0.7226 -0.3553
vn 0.4406 -0.8244 -0.3553
vn -0.2714 0.8945 -0.3553
vn -0.8244 -0.4406 -0.3553
vn -0.2713 -0.8945 -0.3553
vn 0.7226 -0.5930 -0.3553
vn -0.5930 0.7226 -0.3553
vn -0.9303 -0.0916 -0.3553
vn 0.5930 0.7226 -0.3553
vn 0.2714 -0.8945 -0.3553
vn 0.8945 -0.2714 -0.3553
vn 0.2714 0.8945 -0.3553
vn -0.2713 0.8945 -0.3553
vn -0.2714 -0.8945 -0.3553
usemtl マテリアル
s off
f 65/1/1 4/2/1 3/3/1
f 66/4/2 6/5/2 5/6/2
f 67/7/3 8/8/3 7/9/3
f 68/10/4 10/11/4 9/12/4
f 69/13/5 12/14/5 11/15/5
f 70/16/6 14/17/6 13/18/6
f 71/19/7 16/20/7 15/21/7
f 72/22/8 18/23/8 17/24/8
f 73/25/9 20/26/9 19/27/9
f 74/28/10 22/29/10 21/30/10
f 75/31/11 24/32/11 23/33/11
f 76/34/12 26/35/12 25/36/12
f 77/37/13 28/38/13 27/39/13
f 78/40/14 30/41/14 29/42/14
f 79/43/15 32/44/15 31/45/15
f 80/46/16 34/47/16 33/48/16
f 81/49/17 36/50/17 35/51/17
f 82/52/18 38/53/18 37/54/18
f 83/55/19 40/56/19 39/57/19
f 84/58/20 42/59/20 41/60/20
f 85/61/21 44/62/21 43/63/21
f 86/64/22 46/65/22 45/66/22
f 87/67/23 48/68/23 47/69/23
f 88/70/24 50/71/24 49/72/24
f 89/73/25 52/74/25 51/75/25
f 90/76/26 54/77/26 53/78/26
f 91/79/27 56/80/27 55/81/27
f 92/82/28 58/83/28 57/84/28
f 93/85/29 60/86/29 59/87/29
f 94/88/30 62/89/30 61/90/30
f 4/91/31 116/92/31 66/93/31
f 95/94/32 64/95/32 63/96/32
f 96/97/33 2/98/33 1/99/33
f 31/100/34 47/101/34 63/102/34
f 88/103/31 98/104/31 50/105/31
f 18/106/31 97/107/31 73/108/31
f 20/109/31 99/110/31 74/111/31
f 118/112/35 153/113/35 120/114/35
f 22/115/31 101/116/31 75/117/31
f 127/118/36 130/119/36 97/120/36
f 98/121/37 133/122/37 100/123/37
f 24/124/31 104/125/31 76/126/31
f 108/127/38 142/128/38 109/129/38
f 26/130/31 106/131/31 77/132/31
f 28/133/31 107/134/31 78/135/31
f 123/136/39 158/137/39 125/138/39
f 103/139/40 138/140/40 105/141/40
f 30/142/31 110/143/31 79/144/31
f 111/145/41 147/146/41 114/147/41
f 32/148/31 112/149/31 80/150/31
f 34/151/31 113/152/31 81/153/31
f 101/154/42 137/155/42 104/156/42
f 36/157/31 115/158/31 82/159/31
f 110/160/43 145/161/43 112/162/43
f 38/163/31 117/164/31 83/165/31
f 6/166/31 118/167/31 67/168/31
f 40/169/31 119/170/31 84/171/31
f 8/172/31 120/173/31 68/174/31
f 42/175/31 121/176/31 85/177/31
f 10/178/31 122/179/31 69/180/31
f 12/181/31 123/182/31 70/183/31
f 44/184/31 124/185/31 86/186/31
f 14/187/31 125/188/31 71/189/31
f 46/190/31 126/191/31 87/192/31
f 16/193/31 127/194/31 72/195/31
f 48/196/31 128/197/31 88/103/31
f 88/103/31 128/197/31 98/104/31
f 119/198/44 154/199/44 121/200/44
f 72/195/31 97/107/31 18/106/31
f 72/195/31 127/194/31 97/107/31
f 128/201/45 131/202/45 98/121/45
f 87/192/31 128/197/31 48/196/31
f 87/192/31 126/191/31 128/197/31
f 116/203/46 151/204/46 118/112/46
f 71/189/31 127/194/31 16/193/31
f 71/189/31 125/188/31 127/194/31
f 106/205/47 140/206/47 107/207/47
f 86/186/31 126/191/31 46/190/31
f 86/186/31 124/185/31 126/191/31
f 115/208/48 150/209/48 117/210/48
f 70/183/31 125/188/31 14/187/31
f 70/183/31 123/182/31 125/188/31
f 126/211/49 157/212/49 159/213/49
f 69/180/31 123/182/31 12/181/31
f 69/180/31 122/179/31 123/182/31
f 120/114/50 155/214/50 122/215/50
f 85/177/31 124/185/31 44/184/31
f 85/177/31 121/176/31 124/185/31
f 100/216/51 135/217/51 102/218/51
f 68/174/31 122/179/31 10/178/31
f 68/174/31 120/173/31 122/179/31
f 109/129/52 144/219/52 111/145/52
f 84/171/31 121/176/31 42/175/31
f 84/171/31 119/170/31 121/176/31
f 97/220/53 132/221/53 99/222/53
f 67/168/31 120/173/31 8/172/31
f 67/168/31 118/167/31 120/173/31
f 107/207/54 143/223/54 110/160/54
f 83/165/31 119/170/31 40/169/31
f 83/165/31 117/164/31 119/170/31
f 125/138/55 160/224/55 127/118/55
f 114/225/31 65/226/31 2/227/31
f 114/225/31 116/92/31 65/226/31
f 116/92/31 4/91/31 65/226/31
f 82/159/31 117/164/31 38/163/31
f 82/159/31 115/158/31 117/164/31
f 114/228/56 149/229/56 116/203/56
f 111/230/31 96/231/31 64/232/31
f 111/230/31 114/225/31 96/231/31
f 114/225/31 2/227/31 96/231/31
f 81/153/31 115/158/31 36/157/31
f 81/153/31 113/152/31 115/158/31
f 112/162/57 146/233/57 113/234/57
f 80/150/31 113/152/31 34/151/31
f 80/150/31 112/149/31 113/152/31
f 121/200/58 157/212/58 124/235/58
f 109/236/31 95/237/31 62/238/31
f 109/236/31 111/230/31 95/237/31
f 111/230/31 64/232/31 95/237/31
f 79/144/31 112/149/31 32/148/31
f 79/144/31 110/143/31 112/149/31
f 102/218/59 136/239/59 103/139/59
f 108/240/31 94/241/31 60/242/31
f 108/240/31 109/236/31 94/241/31
f 109/236/31 62/238/31 94/241/31
f 105/243/31 93/244/31 58/245/31
f 105/243/31 108/240/31 93/244/31
f 108/240/31 60/242/31 93/244/31
f 78/135/31 110/143/31 30/142/31
f 78/135/31 107/134/31 110/143/31
f 101/154/60 132/221/60 134/246/60
f 77/132/31 107/134/31 28/133/31
f 77/132/31 106/131/31 107/134/31
f 117/210/61 152/247/61 119/198/61
f 103/248/31 92/249/31 56/250/31
f 103/248/31 105/243/31 92/249/31
f 105/243/31 58/245/31 92/249/31
f 76/126/31 106/131/31 26/130/31
f 76/126/31 104/125/31 106/131/31
f 126/211/62 161/251/62 128/201/62
f 102/252/31 91/253/31 54/254/31
f 102/252/31 103/248/31 91/253/31
f 103/248/31 56/250/31 91/253/31
f 100/255/31 90/256/31 52/257/31
f 100/255/31 102/252/31 90/256/31
f 102/252/31 54/254/31 90/256/31
f 75/117/31 104/125/31 24/124/31
f 75/117/31 101/116/31 104/125/31
f 105/141/63 141/258/63 108/127/63
f 98/104/31 89/259/31 50/105/31
f 98/104/31 100/255/31 89/259/31
f 100/255/31 52/257/31 89/259/31
f 74/111/31 101/116/31 22/115/31
f 74/111/31 99/110/31 101/116/31
f 104/156/64 139/260/64 106/205/64
f 73/108/31 99/110/31 20/109/31
f 73/108/31 97/107/31 99/110/31
f 113/234/65 148/261/65 115/262/65
f 66/93/31 118/167/31 6/166/31
f 66/93/31 116/92/31 118/167/31
f 122/215/66 156/263/66 123/136/66
f 129/264/31 133/265/31 131/266/31
f 129/264/31 135/267/31 133/265/31
f 129/264/31 136/268/31 135/267/31
f 129/264/31 138/269/31 136/268/31
f 129/264/31 141/270/31 138/269/31
f 129/264/31 142/271/31 141/270/31
f 129/264/31 144/272/31 142/271/31
f 129/264/31 147/273/31 144/272/31
f 129/264/31 149/274/31 147/273/31
f 161/275/31 129/264/31 131/266/31
f 160/276/31 129/264/31 130/277/31
f 159/278/31 129/264/31 161/275/31
f 158/279/31 129/264/31 160/276/31
f 157/280/31 129/264/31 159/278/31
f 156/281/31 129/264/31 158/279/31
f 155/282/31 129/264/31 156/281/31
f 154/283/31 129/264/31 157/280/31
f 153/284/31 129/264/31 155/282/31
f 152/285/31 129/264/31 154/283/31
f 151/286/31 129/264/31 153/284/31
f 150/287/31 129/264/31 152/285/31
f 148/288/31 129/264/31 150/287/31
f 146/289/31 129/264/31 148/288/31
f 145/290/31 129/264/31 146/289/31
f 143/291/31 129/264/31 145/290/31
f 140/292/31 129/264/31 143/291/31
f 139/293/31 129/264/31 140/292/31
f 137/294/31 129/264/31 139/293/31
f 134/295/31 129/264/31 137/294/31
f 132/296/31 129/264/31 134/295/31
f 130/277/31 129/264/31 132/296/31
f 149/274/31 129/264/31 151/286/31
f 3/3/1 1/99/1 65/1/1
f 1/99/1 2/98/1 65/1/1
f 5/6/2 3/297/2 66/4/2
f 3/297/2 4/298/2 66/4/2
f 7/9/3 5/6/3 67/7/3
f 5/6/3 6/5/3 67/7/3
f 9/12/4 7/9/4 68/10/4
f 7/9/4 8/8/4 68/10/4
f 11/15/5 9/12/5 69/13/5
f 9/12/5 10/11/5 69/13/5
f 13/18/6 11/15/6 70/16/6
f 11/15/6 12/14/6 70/16/6
f 15/21/7 13/18/7 71/19/7
f 13/18/7 14/17/7 71/19/7
f 17/24/8 15/21/8 72/22/8
f 15/21/8 16/20/8 72/22/8
f 19/27/9 17/24/9 73/25/9
f 17/24/9 18/23/9 73/25/9
f 21/30/10 19/299/10 74/28/10
f 19/299/10 20/300/10 74/28/10
f 23/33/11 21/30/11 75/31/11
f 21/30/11 22/29/11 75/31/11
f 25/36/12 23/33/12 76/34/12
f 23/33/12 24/32/12 76/34/12
f 27/39/13 25/36/13 77/37/13
f 25/36/13 26/35/13 77/37/13
f 29/42/14 27/39/14 78/40/14
f 27/39/14 28/38/14 78/40/14
f 31/45/15 29/42/15 79/43/15
f 29/42/15 30/41/15 79/43/15
f 33/48/16 31/45/16 80/46/16
f 31/45/16 32/44/16 80/46/16
f 35/51/17 33/301/17 81/49/17
f 33/301/17 34/302/17 81/49/17
f 37/54/18 35/51/18 82/52/18
f 35/51/18 36/50/18 82/52/18
f 39/57/19 37/54/19 83/55/19
f 37/54/19 38/53/19 83/55/19
f 41/60/20 39/57/20 84/58/20
f 39/57/20 40/56/20 84/58/20
f 43/63/21 41/60/21 85/61/21
f 41/60/21 42/59/21 85/61/21
f 45/66/22 43/63/22 86/64/22
f 43/63/22 44/62/22 86/64/22
f 47/69/23 45/66/23 87/67/23
f 45/66/23 46/65/23 87/67/23
f 49/72/24 47/69/24 88/70/24
f 47/69/24 48/68/24 88/70/24
f 51/75/25 49/303/25 89/73/25
f 49/303/25 50/304/25 89/73/25
f 53/78/26 51/75/26 90/76/26
f 51/75/26 52/74/26 90/76/26
f 55/81/27 53/78/27 91/79/27
f 53/78/27 54/77/27 91/79/27
f 57/84/28 55/81/28 92/82/28
f 55/81/28 56/80/28 92/82/28
f 59/87/29 57/84/29 93/85/29
f 57/84/29 58/83/29 93/85/29
f 61/90/30 59/87/30 94/88/30
f 59/87/30 60/86/30 94/88/30
f 63/96/32 61/90/32 95/94/32
f 61/90/32 62/89/32 95/94/32
f 1/99/33 63/96/33 96/97/33
f 63/96/33 64/95/33 96/97/33
f 63/102/34 1/305/34 3/306/34
f 3/306/34 5/307/34 7/308/34
f 7/308/34 9/309/34 11/310/34
f 11/310/34 13/311/34 15/312/34
f 15/312/34 17/313/34 19/314/34
f 19/314/34 21/315/34 23/316/34
f 23/316/34 25/317/34 27/318/34
f 27/318/34 29/319/34 31/100/34
f 31/100/34 33/320/34 35/321/34
f 35/321/34 37/322/34 39/323/34
f 39/323/34 41/324/34 43/325/34
f 43/325/34 45/326/34 47/101/34
f 47/101/34 49/327/34 51/328/34
f 51/328/34 53/329/34 55/330/34
f 55/330/34 57/331/34 59/332/34
f 59/332/34 61/333/34 63/102/34
f 63/102/34 3/306/34 15/312/34
f 3/306/34 7/308/34 15/312/34
f 7/308/34 11/310/34 15/312/34
f 15/312/34 19/314/34 31/100/34
f 19/314/34 23/316/34 31/100/34
f 23/316/34 27/318/34 31/100/34
f 31/100/34 35/321/34 47/101/34
f 35/321/34 39/323/34 47/101/34
f 39/323/34 43/325/34 47/101/34
f 47/101/34 51/328/34 63/102/34
f 51/328/34 55/330/34 63/102/34
f 55/330/34 59/332/34 63/102/34
f 63/102/34 15/312/34 31/100/34
f 118/112/35 151/204/35 153/113/35
f 127/118/36 160/224/36 130/119/36
f 98/121/37 131/202/37 133/122/37
f 108/127/38 141/258/38 142/128/38
f 123/136/39 156/263/39 158/137/39
f 103/139/40 136/239/40 138/140/40
f 111/145/41 144/219/41 147/146/41
f 101/154/42 134/246/42 137/155/42
f 110/160/43 143/223/43 145/161/43
f 119/198/44 152/247/44 154/199/44
f 128/201/45 161/251/45 131/202/45
f 116/203/46 149/229/46 151/204/46
f 106/205/47 139/260/47 140/206/47
f 115/208/48 148/334/48 150/209/48
f 126/211/49 124/235/49 157/212/49
f 120/114/50 153/113/50 155/214/50
f 100/216/67 133/335/67 135/217/67
f 109/129/68 142/128/68 144/219/68
f 97/220/53 130/336/53 132/221/53
f 107/207/54 140/206/54 143/223/54
f 125/138/69 158/137/69 160/224/69
f 114/228/56 147/337/56 149/229/56
f 112/162/57 145/161/57 146/233/57
f 121/200/58 154/199/58 157/212/58
f 102/218/59 135/217/59 136/239/59
f 101/154/70 99/222/70 132/221/70
f 117/210/61 150/209/61 152/247/61
f 126/211/71 159/213/71 161/251/71
f 105/141/63 138/140/63 141/258/63
f 104/156/64 137/155/64 139/260/64
f 113/234/65 146/233/65 148/261/65
f 122/215/66 155/214/66 156/263/66
