# Blender v2.92.0 OBJ File: ''
# www.blender.org
mtllib slashing.mtl
o Cube
v 3.811516 7.787495 0.016846
v 3.811516 -7.787495 0.016846
v 3.811516 7.787495 -0.016846
v 3.811516 -7.787495 -0.016846
v 3.508381 7.851456 0.022957
v 3.508381 -7.851456 0.022957
v 3.508381 7.851456 -0.022957
v 3.508381 -7.851456 -0.022957
v 0.750298 0.000000 -0.151400
v -0.754604 0.000000 0.151487
v 0.750298 0.000000 0.151400
v -0.754604 0.000000 -0.151487
v 0.127865 4.926672 0.014298
v 1.529565 4.422404 -0.032330
v 1.529565 4.422404 0.032330
v 0.127865 4.926672 -0.014298
v 1.337748 6.687649 -0.054495
v 2.496878 6.226604 0.059065
v 2.496878 6.226604 -0.059065
v 1.337748 6.687649 0.054495
v 1.529565 -4.422404 -0.032330
v 1.529565 -4.422404 0.032330
v 0.127865 -4.926672 -0.014298
v 0.127865 -4.926672 0.014298
v 2.496878 -6.226604 0.059065
v 2.496878 -6.226604 -0.059065
v 1.337748 -6.687649 0.054495
v 1.337748 -6.687649 -0.054495
v -0.540349 -2.589859 0.116859
v 0.934680 -2.308401 -0.122744
v 0.934680 -2.308401 0.122744
v -0.540349 -2.589859 -0.116859
v 0.934680 2.308401 -0.122744
v 0.934680 2.308401 0.122744
v -0.540349 2.589859 -0.116859
v -0.540349 2.589859 0.116859
v 2.370426 7.465721 -0.049788
v 3.135111 7.028513 0.043837
v 3.135111 7.028513 -0.043837
v 2.370426 7.465721 0.049788
v 1.970743 5.360811 0.033481
v 1.970743 5.360811 -0.033481
v 0.654502 5.833200 0.050788
v 0.654502 5.833200 -0.050788
v -0.259584 3.797966 0.073476
v 1.183829 3.393931 -0.084756
v 1.183829 3.393931 0.084756
v -0.259584 3.797966 -0.073476
v 0.789472 1.175462 -0.145061
v 0.789472 1.175462 0.145061
v -0.706798 1.331724 -0.143171
v -0.706798 1.331724 0.143171
v -0.706798 -1.331724 0.143171
v 0.789472 -1.175462 -0.145061
v 0.789472 -1.175462 0.145061
v -0.706798 -1.331724 -0.143171
v 1.183829 -3.393931 -0.084756
v 1.183829 -3.393931 0.084756
v -0.259584 -3.797966 -0.073476
v -0.259584 -3.797966 0.073476
v 0.654502 -5.833200 -0.050788
v 1.970743 -5.360811 0.033481
v 1.970743 -5.360811 -0.033481
v 0.654502 -5.833200 0.050788
v 3.135111 -7.028513 0.043837
v 3.135111 -7.028513 -0.043837
v 2.370426 -7.465721 0.049788
v 2.370426 -7.465721 -0.049788
v 3.050952 7.713026 -0.046217
v 3.524724 7.446564 0.037295
v 3.524724 7.446564 -0.037295
v 3.050952 7.713026 0.046217
v 2.807171 6.644670 0.051129
v 2.807171 6.644670 -0.051129
v 1.825483 7.147021 0.051500
v 1.825483 7.147021 -0.051500
v 0.981795 6.276540 -0.058602
v 2.231946 5.816152 0.056580
v 2.231946 5.816152 -0.056580
v 0.981795 6.276540 0.058602
v 1.736122 4.893654 -0.001120
v 1.736122 4.893654 0.001120
v 0.364508 5.372405 0.020778
v 0.364508 5.372406 -0.020778
v -0.078681 4.379930 0.045776
v 1.345117 3.915865 -0.060266
v 1.345117 3.915865 0.060266
v -0.078681 4.379930 -0.045776
v 1.046701 2.857718 -0.105635
v 1.046701 2.857718 0.105635
v -0.413802 3.200846 -0.097225
v -0.413801 3.200846 0.097225
v -0.638302 1.966349 0.132223
v 0.848659 1.747219 -0.135933
v 0.848659 1.747218 0.135933
v -0.638302 1.966349 -0.132223
v 0.757603 0.594283 -0.150057
v 0.757603 0.594283 0.150057
v -0.745043 0.682352 -0.149565
v -0.745043 0.682352 0.149565
v -0.745043 -0.682352 0.149565
v 0.757603 -0.594283 -0.150057
v 0.757603 -0.594283 0.150057
v -0.745043 -0.682352 -0.149565
v 0.848659 -1.747219 -0.135933
v 0.848659 -1.747218 0.135933
v -0.638302 -1.966349 -0.132223
v -0.638302 -1.966349 0.132223
v -0.413801 -3.200846 0.097225
v 1.046701 -2.857718 -0.105635
v 1.046701 -2.857718 0.105635
v -0.413802 -3.200846 -0.097225
v 1.345117 -3.915865 -0.060266
v 1.345117 -3.915865 0.060266
v -0.078681 -4.379930 -0.045776
v -0.078681 -4.379930 0.045776
v 0.364508 -5.372406 -0.020778
v 1.736122 -4.893654 -0.001120
v 1.736122 -4.893654 0.001120
v 0.364508 -5.372405 0.020778
v 2.231946 -5.816152 0.056580
v 2.231946 -5.816152 -0.056580
v 0.981795 -6.276540 0.058602
v 0.981795 -6.276540 -0.058602
v 1.825483 -7.147021 -0.051500
v 2.807171 -6.644670 0.051129
v 2.807171 -6.644670 -0.051129
v 1.825483 -7.147021 0.051500
v 3.524724 -7.446564 0.037295
v 3.524724 -7.446564 -0.037295
v 3.050952 -7.713026 0.046217
v 3.050952 -7.713026 -0.046217
vt 0.875000 0.500000
vt 0.625000 0.750000
vt 0.625000 0.500000
vt 0.617188 0.750000
vt 0.625000 1.000000
vt 0.617188 1.000000
vt 0.625000 0.000000
vt 0.617188 0.250000
vt 0.617188 0.000000
vt 0.375000 0.500000
vt 0.125000 0.750000
vt 0.125000 0.500000
vt 0.617188 0.500000
vt 0.625000 0.250000
vt 0.492188 0.250000
vt 0.500000 0.500000
vt 0.492188 0.500000
vt 0.492188 0.750000
vt 0.500000 0.000000
vt 0.492188 0.000000
vt 0.500000 0.750000
vt 0.492188 1.000000
vt 0.562500 0.250000
vt 0.554688 0.500000
vt 0.554688 0.250000
vt 0.562500 0.500000
vt 0.554688 0.750000
vt 0.562500 0.000000
vt 0.554688 0.000000
vt 0.562500 1.000000
vt 0.554688 1.000000
vt 0.593750 0.250000
vt 0.586309 0.500000
vt 0.586309 0.250000
vt 0.593750 0.500000
vt 0.586309 0.750000
vt 0.593750 0.000000
vt 0.586309 0.000000
vt 0.593750 1.000000
vt 0.586309 1.000000
vt 0.437500 0.750000
vt 0.429688 1.000000
vt 0.429688 0.750000
vt 0.429688 0.000000
vt 0.437500 0.250000
vt 0.429688 0.250000
vt 0.437500 0.500000
vt 0.429688 0.500000
vt 0.398438 0.250000
vt 0.406250 0.500000
vt 0.398438 0.500000
vt 0.398438 0.750000
vt 0.406250 0.000000
vt 0.398438 0.000000
vt 0.406250 0.750000
vt 0.398438 1.000000
vt 0.468750 0.750000
vt 0.460938 1.000000
vt 0.460938 0.750000
vt 0.468750 0.000000
vt 0.460938 0.250000
vt 0.460938 0.000000
vt 0.460938 0.500000
vt 0.468750 0.500000
vt 0.523438 0.750000
vt 0.531250 1.000000
vt 0.523438 1.000000
vt 0.531250 0.000000
vt 0.523438 0.250000
vt 0.523438 0.000000
vt 0.531250 0.500000
vt 0.523438 0.500000
vt 0.531250 0.250000
vt 0.609375 0.250000
vt 0.601562 0.500000
vt 0.601562 0.250000
vt 0.609375 0.750000
vt 0.601562 0.750000
vt 0.609375 0.000000
vt 0.601562 0.000000
vt 0.609375 1.000000
vt 0.601562 1.000000
vt 0.570312 0.750000
vt 0.578125 1.000000
vt 0.570312 1.000000
vt 0.578125 0.000000
vt 0.570312 0.250000
vt 0.570312 0.000000
vt 0.570312 0.500000
vt 0.578125 0.750000
vt 0.578125 0.250000
vt 0.539062 0.750000
vt 0.546875 1.000000
vt 0.539062 1.000000
vt 0.546875 0.000000
vt 0.539062 0.250000
vt 0.539062 0.000000
vt 0.546875 0.500000
vt 0.539062 0.500000
vt 0.546875 0.250000
vt 0.515625 0.250000
vt 0.507812 0.500000
vt 0.507812 0.250000
vt 0.515625 0.500000
vt 0.507812 0.750000
vt 0.507812 0.000000
vt 0.515625 1.000000
vt 0.507812 1.000000
vt 0.484375 0.750000
vt 0.476562 1.000000
vt 0.476562 0.750000
vt 0.484375 0.000000
vt 0.476562 0.250000
vt 0.476562 0.000000
vt 0.484375 0.500000
vt 0.476562 0.500000
vt 0.445312 0.250000
vt 0.453125 0.500000
vt 0.445312 0.500000
vt 0.445312 0.750000
vt 0.453125 0.000000
vt 0.445312 0.000000
vt 0.453125 0.750000
vt 0.445312 1.000000
vt 0.413691 0.250000
vt 0.421875 0.500000
vt 0.413691 0.500000
vt 0.413691 0.750000
vt 0.421875 0.000000
vt 0.413691 0.000000
vt 0.421875 0.750000
vt 0.413691 1.000000
vt 0.390625 0.750000
vt 0.382812 1.000000
vt 0.382812 0.750000
vt 0.390625 0.000000
vt 0.382812 0.250000
vt 0.382812 0.000000
vt 0.390625 0.500000
vt 0.382812 0.500000
vt 0.609375 0.500000
vt 0.593750 0.750000
vt 0.578125 0.500000
vt 0.562500 0.750000
vt 0.546875 0.750000
vt 0.531250 0.750000
vt 0.515625 0.750000
vt 0.515625 0.000000
vt 0.500000 1.000000
vt 0.500000 0.250000
vt 0.484375 1.000000
vt 0.484375 0.250000
vt 0.468750 0.250000
vt 0.468750 1.000000
vt 0.453125 0.250000
vt 0.453125 1.000000
vt 0.437500 1.000000
vt 0.437500 0.000000
vt 0.421875 0.250000
vt 0.421875 1.000000
vt 0.406250 1.000000
vt 0.406250 0.250000
vt 0.390625 1.000000
vt 0.390625 0.250000
vt 0.375000 0.250000
vt 0.375000 0.750000
vt 0.375000 0.000000
vt 0.375000 1.000000
vt 0.875000 0.750000
vn -0.2065 -0.9785 0.0000
vn -0.0396 -0.0370 0.9985
vn 0.2897 -0.9571 0.0000
vn -0.2065 0.9785 0.0000
vn -0.7653 0.6437 0.0000
vn -0.0396 -0.0370 -0.9985
vn -0.0002 -0.0023 -1.0000
vn 0.9999 0.0123 0.0000
vn -0.9999 -0.0140 0.0000
vn -0.0002 -0.0023 1.0000
vn 0.0076 0.0546 -0.9985
vn 0.9396 -0.3422 0.0000
vn -0.9355 0.3534 0.0000
vn 0.0076 0.0546 0.9985
vn -0.0040 -0.0065 -1.0000
vn -0.8402 0.5423 0.0000
vn 0.7560 -0.6546 0.0000
vn -0.0040 -0.0065 1.0000
vn 0.0062 -0.0634 0.9980
vn 0.8832 0.4689 -0.0000
vn 0.9159 0.4014 0.0000
vn 0.0062 -0.0634 -0.9980
vn -0.0073 0.0136 -0.9999
vn -0.8030 -0.5960 0.0000
vn 0.6856 0.7280 -0.0000
vn -0.0073 0.0136 0.9999
vn 0.0015 -0.0308 0.9995
vn -0.9792 -0.2028 0.0000
vn 0.9798 0.1998 0.0000
vn 0.0015 -0.0308 -0.9995
vn 0.0011 0.0245 0.9997
vn -0.9879 0.1552 0.0000
vn 0.9885 -0.1515 0.0000
vn 0.0011 0.0245 -0.9997
vn -0.0017 -0.0025 -1.0000
vn -0.7603 0.6496 0.0000
vn 0.5048 -0.8632 -0.0000
vn -0.0017 -0.0025 1.0000
vn 0.0055 0.0615 0.9981
vn 0.8463 -0.5326 -0.0000
vn 0.8936 -0.4488 0.0000
vn 0.0055 0.0615 -0.9981
vn 0.0034 0.0389 0.9992
vn -0.9682 0.2501 -0.0000
vn 0.9688 -0.2478 0.0000
vn 0.0034 0.0389 -0.9992
vn 0.0002 0.0098 -1.0000
vn 0.9985 -0.0548 0.0000
vn -0.9983 0.0588 0.0000
vn 0.0002 0.0098 1.0000
vn -0.0001 -0.0160 0.9999
vn -0.9942 -0.1073 0.0000
vn 0.9947 0.1030 -0.0000
vn -0.0001 -0.0160 -0.9999
vn 0.0046 -0.0454 -0.9990
vn 0.9554 0.2952 0.0000
vn -0.9549 -0.2968 0.0000
vn 0.0046 -0.0454 0.9990
vn 0.0141 -0.0426 -0.9990
vn -0.8674 -0.4976 0.0000
vn 0.8045 0.5939 0.0000
vn 0.0141 -0.0426 0.9990
vn -0.0181 -0.0012 0.9998
vn 0.3415 0.9399 0.0000
vn -0.7316 -0.6818 0.0000
vn -0.0181 -0.0012 -0.9998
vn -0.0062 0.0027 -1.0000
vn -0.7316 0.6818 0.0000
vn 0.3415 -0.9399 0.0000
vn -0.0062 0.0027 1.0000
vn 0.0009 -0.0075 1.0000
vn 0.6856 -0.7280 0.0000
vn -0.8030 0.5960 0.0000
vn 0.0009 -0.0075 -1.0000
vn -0.0054 0.0216 0.9998
vn 0.8045 -0.5939 0.0000
vn -0.8674 0.4976 0.0000
vn -0.0054 0.0216 -0.9998
vn 0.0129 0.0716 -0.9973
vn 0.9159 -0.4014 0.0000
vn -0.8832 0.4689 0.0000
vn 0.0129 0.0716 0.9973
vn 0.0051 0.0460 0.9989
vn -0.9549 0.2968 0.0000
vn 0.9554 -0.2952 -0.0000
vn 0.0051 0.0460 -0.9989
vn 0.0021 0.0317 -0.9995
vn 0.9798 -0.1998 0.0000
vn -0.9792 0.2028 0.0000
vn 0.0021 0.0317 0.9995
vn 0.0005 0.0172 -0.9999
vn 0.9947 -0.1030 0.0000
vn -0.9942 0.1073 0.0000
vn 0.0005 0.0172 0.9999
vn 0.0001 0.0028 1.0000
vn -0.9999 0.0140 0.0000
vn 0.9999 -0.0123 0.0000
vn 0.0001 0.0028 -1.0000
vn -0.0004 -0.0086 1.0000
vn -0.9983 -0.0588 0.0000
vn 0.9985 0.0548 0.0000
vn -0.0004 -0.0086 -1.0000
vn 0.0005 -0.0234 -0.9997
vn 0.9885 0.1515 0.0000
vn -0.9879 -0.1552 0.0000
vn 0.0005 -0.0234 0.9997
vn 0.0029 -0.0382 -0.9993
vn 0.9688 0.2478 0.0000
vn -0.9682 -0.2501 0.0000
vn 0.0029 -0.0382 0.9993
vn 0.0062 -0.0528 0.9986
vn -0.9355 -0.3534 0.0000
vn 0.9396 0.3422 0.0000
vn 0.0062 -0.0528 -0.9986
vn 0.0114 -0.0682 -0.9976
vn -0.8936 -0.4488 0.0000
vn 0.8463 0.5326 0.0000
vn 0.0114 -0.0682 0.9976
vn 0.0051 -0.0028 1.0000
vn 0.7560 0.6546 0.0000
vn -0.8402 -0.5423 0.0000
vn 0.0051 -0.0028 -1.0000
vn -0.0125 0.0083 0.9999
vn 0.5048 0.8632 0.0000
vn -0.7603 -0.6496 0.0000
vn -0.0125 0.0083 -0.9999
vn -0.0278 0.0365 -0.9989
vn -0.7653 -0.6437 0.0000
vn 0.2897 0.9571 0.0000
vn -0.0278 0.0365 0.9989
vn -0.0278 -0.0365 0.9989
vn -0.7652 0.6437 0.0000
vn -0.0278 -0.0365 -0.9989
vn 0.0001 -0.0028 -1.0000
vn 0.0001 -0.0028 1.0000
vn 0.0062 0.0528 -0.9986
vn 0.0062 0.0528 0.9986
vn 0.0051 0.0028 -1.0000
vn 0.0051 0.0028 1.0000
vn 0.0129 -0.0716 0.9973
vn -0.8832 -0.4689 0.0000
vn 0.0129 -0.0716 -0.9973
vn 0.0009 0.0075 -1.0000
vn 0.0009 0.0075 1.0000
vn 0.0021 -0.0317 0.9995
vn 0.0021 -0.0317 -0.9995
vn 0.0005 0.0234 0.9997
vn 0.0005 0.0234 -0.9997
vn -0.0125 -0.0083 -0.9999
vn -0.0125 -0.0083 0.9999
vn 0.0114 0.0682 0.9976
vn -0.8936 0.4488 0.0000
vn 0.0114 0.0682 -0.9976
vn 0.0029 0.0382 0.9993
vn 0.0029 0.0382 -0.9993
vn -0.0004 0.0086 -1.0000
vn -0.0004 0.0086 1.0000
vn 0.0005 -0.0172 0.9999
vn 0.0005 -0.0172 -0.9999
vn 0.0051 -0.0460 -0.9989
vn 0.0051 -0.0460 0.9989
vn -0.0054 -0.0216 -0.9998
vn -0.0054 -0.0216 0.9998
vn -0.0062 -0.0027 1.0000
vn -0.0062 -0.0027 -1.0000
vn -0.0181 0.0012 -0.9998
vn -0.0181 0.0012 0.9998
vn -0.0073 -0.0136 0.9999
vn -0.0073 -0.0136 -0.9999
vn 0.0141 0.0426 0.9990
vn 0.0141 0.0426 -0.9990
vn 0.0062 0.0634 -0.9980
vn 0.8832 -0.4689 -0.0000
vn 0.0062 0.0634 0.9980
vn 0.0046 0.0454 0.9990
vn 0.0046 0.0454 -0.9990
vn 0.0015 0.0308 -0.9995
vn 0.0015 0.0308 0.9995
vn -0.0001 0.0160 -0.9999
vn -0.0001 0.0160 0.9999
vn -0.0002 0.0023 1.0000
vn -0.0002 0.0023 -1.0000
vn 0.0002 -0.0098 1.0000
vn 0.0002 -0.0098 -1.0000
vn 0.0011 -0.0245 -0.9997
vn 0.0011 -0.0245 0.9997
vn 0.0034 -0.0389 -0.9992
vn 0.0034 -0.0389 0.9992
vn 0.0076 -0.0546 0.9985
vn 0.0076 -0.0546 -0.9985
vn 0.0055 -0.0615 -0.9981
vn 0.8936 0.4488 0.0000
vn 0.0055 -0.0615 0.9981
vn -0.0040 0.0065 1.0000
vn -0.0040 0.0065 -1.0000
vn -0.0017 0.0025 1.0000
vn -0.0017 0.0025 -1.0000
vn -0.0396 0.0370 -0.9985
vn -0.7652 -0.6437 0.0000
vn -0.0396 0.0370 0.9985
usemtl Material
s off
f 5/1/1 3/2/1 1/3/1
f 71/4/2 7/5/2 69/6/2
f 7/7/3 72/8/3 69/9/3
f 2/10/4 8/11/4 6/12/4
f 1/3/5 71/4/5 70/13/5
f 5/14/6 70/13/6 72/8/6
f 104/15/7 9/16/7 102/17/7
f 9/16/8 103/18/8 102/17/8
f 10/19/9 104/15/9 101/20/9
f 11/21/10 101/22/10 103/18/10
f 16/23/11 86/24/11 88/25/11
f 14/26/12 87/27/12 86/24/12
f 13/28/13 88/25/13 85/29/13
f 87/27/14 13/30/14 85/31/14
f 20/32/15 78/33/15 80/34/15
f 18/35/16 79/36/16 78/33/16
f 17/37/17 80/34/17 77/38/17
f 79/36/18 17/39/18 77/40/18
f 22/41/19 117/42/19 119/43/19
f 117/44/20 23/45/20 120/46/20
f 21/47/21 119/43/21 118/48/21
f 120/46/22 21/47/22 118/48/22
f 128/49/23 25/50/23 126/51/23
f 25/50/24 127/52/24 126/51/24
f 28/53/25 128/49/25 125/54/25
f 26/55/26 125/56/26 127/52/26
f 31/57/27 109/58/27 111/59/27
f 29/60/28 112/61/28 109/62/28
f 110/63/29 31/57/29 111/59/29
f 112/61/30 30/64/30 110/63/30
f 95/65/31 36/66/31 93/67/31
f 36/68/32 96/69/32 93/70/32
f 33/71/33 95/65/33 94/72/33
f 35/73/34 94/72/34 96/69/34
f 40/74/35 73/75/35 75/76/35
f 73/75/36 39/77/36 74/78/36
f 37/79/37 75/76/37 76/80/37
f 74/78/38 37/81/38 76/82/38
f 82/83/39 44/84/39 84/85/39
f 44/86/40 83/87/40 84/88/40
f 81/89/41 42/90/41 82/83/41
f 43/91/42 81/89/42 83/87/42
f 90/92/43 45/93/43 92/94/43
f 45/95/44 91/96/44 92/97/44
f 46/98/45 90/92/45 89/99/45
f 48/100/46 89/99/46 91/96/46
f 51/101/47 97/102/47 99/103/47
f 49/104/48 98/105/48 97/102/48
f 100/106/49 51/101/49 99/103/49
f 98/105/50 52/107/50 100/108/50
f 55/109/51 108/110/51 106/111/51
f 53/112/52 107/113/52 108/114/52
f 54/115/53 106/111/53 105/116/53
f 107/113/54 54/115/54 105/116/54
f 115/117/55 57/118/55 113/119/55
f 57/118/56 114/120/56 113/119/56
f 60/121/57 115/117/57 116/122/57
f 58/123/58 116/124/58 114/120/58
f 123/125/59 62/126/59 121/127/59
f 62/126/60 122/128/60 121/127/60
f 61/129/61 123/125/61 124/130/61
f 63/131/62 124/132/62 122/128/62
f 66/133/63 132/134/63 130/135/63
f 68/136/64 131/137/64 132/138/64
f 65/139/65 130/135/65 129/140/65
f 131/137/66 65/139/66 129/140/66
f 72/8/67 38/141/67 40/74/67
f 70/13/68 39/77/68 38/141/68
f 69/9/69 40/74/69 37/79/69
f 39/77/70 69/6/70 37/81/70
f 19/142/71 76/82/71 17/39/71
f 76/80/72 20/32/72 17/37/72
f 73/75/73 19/142/73 18/35/73
f 75/76/74 18/35/74 20/32/74
f 42/90/75 77/40/75 44/84/75
f 77/38/76 43/91/76 44/86/76
f 41/143/77 79/36/77 42/90/77
f 80/34/78 41/143/78 43/91/78
f 83/87/79 14/26/79 16/23/79
f 81/89/80 15/144/80 14/26/80
f 13/28/81 83/87/81 16/23/81
f 15/144/82 84/85/82 13/30/82
f 47/145/83 85/31/83 45/93/83
f 85/29/84 48/100/84 45/95/84
f 86/24/85 47/145/85 46/98/85
f 88/25/86 46/98/86 48/100/86
f 91/96/87 33/71/87 35/73/87
f 33/71/88 90/92/88 34/146/88
f 36/68/89 91/96/89 35/73/89
f 34/146/90 92/94/90 36/66/90
f 96/69/91 49/104/91 51/101/91
f 94/72/92 50/147/92 49/104/92
f 93/70/93 51/101/93 52/148/93
f 50/147/94 93/67/94 52/107/94
f 11/21/95 100/108/95 10/149/95
f 100/106/96 12/150/96 10/19/96
f 97/102/97 11/21/97 9/16/97
f 99/103/98 9/16/98 12/150/98
f 103/18/99 53/151/99 55/109/99
f 101/20/100 56/152/100 53/112/100
f 102/17/101 55/109/101 54/115/101
f 56/152/102 102/17/102 54/115/102
f 32/153/103 105/116/103 30/64/103
f 105/116/104 31/57/104 30/64/104
f 108/114/105 32/153/105 29/60/105
f 106/111/106 29/154/106 31/57/106
f 59/155/107 110/63/107 57/118/107
f 110/63/108 58/123/108 57/118/108
f 109/62/109 59/155/109 60/121/109
f 111/59/110 60/156/110 58/123/110
f 114/120/111 24/157/111 22/41/111
f 116/122/112 23/45/112 24/158/112
f 113/119/113 22/41/113 21/47/113
f 23/45/114 113/119/114 21/47/114
f 64/159/115 118/48/115 62/126/115
f 62/126/116 119/43/116 63/131/116
f 117/44/117 64/159/117 61/129/117
f 119/43/118 61/160/118 63/131/118
f 122/128/119 28/161/119 26/55/119
f 124/130/120 27/162/120 28/53/120
f 121/127/121 26/55/121 25/50/121
f 27/162/122 121/127/122 25/50/122
f 127/52/123 68/163/123 66/133/123
f 68/136/124 128/49/124 67/164/124
f 126/51/125 66/133/125 65/139/125
f 67/164/126 126/51/126 65/139/126
f 6/165/127 129/140/127 2/10/127
f 129/140/128 4/166/128 2/10/128
f 132/138/129 6/165/129 8/167/129
f 130/135/130 8/168/130 4/166/130
f 5/1/1 7/169/1 3/2/1
f 71/4/131 3/2/131 7/5/131
f 7/7/3 5/14/3 72/8/3
f 2/10/4 4/166/4 8/11/4
f 1/3/132 3/2/132 71/4/132
f 5/14/133 1/3/133 70/13/133
f 104/15/134 12/150/134 9/16/134
f 9/16/8 11/21/8 103/18/8
f 10/19/9 12/150/9 104/15/9
f 11/21/135 10/149/135 101/22/135
f 16/23/136 14/26/136 86/24/136
f 14/26/12 15/144/12 87/27/12
f 13/28/13 16/23/13 88/25/13
f 87/27/137 15/144/137 13/30/137
f 20/32/138 18/35/138 78/33/138
f 18/35/16 19/142/16 79/36/16
f 17/37/17 20/32/17 80/34/17
f 79/36/139 19/142/139 17/39/139
f 22/41/140 24/157/140 117/42/140
f 117/44/141 24/158/141 23/45/141
f 21/47/21 22/41/21 119/43/21
f 120/46/142 23/45/142 21/47/142
f 128/49/143 27/162/143 25/50/143
f 25/50/24 26/55/24 127/52/24
f 28/53/25 27/162/25 128/49/25
f 26/55/144 28/161/144 125/56/144
f 31/57/145 29/154/145 109/58/145
f 29/60/28 32/153/28 112/61/28
f 110/63/29 30/64/29 31/57/29
f 112/61/146 32/153/146 30/64/146
f 95/65/147 34/146/147 36/66/147
f 36/68/32 35/73/32 96/69/32
f 33/71/33 34/146/33 95/65/33
f 35/73/148 33/71/148 94/72/148
f 40/74/149 38/141/149 73/75/149
f 73/75/36 38/141/36 39/77/36
f 37/79/37 40/74/37 75/76/37
f 74/78/150 39/77/150 37/81/150
f 82/83/151 42/90/151 44/84/151
f 44/86/40 43/91/40 83/87/40
f 81/89/152 41/143/152 42/90/152
f 43/91/153 41/143/153 81/89/153
f 90/92/154 47/145/154 45/93/154
f 45/95/44 48/100/44 91/96/44
f 46/98/45 47/145/45 90/92/45
f 48/100/155 46/98/155 89/99/155
f 51/101/156 49/104/156 97/102/156
f 49/104/48 50/147/48 98/105/48
f 100/106/49 52/148/49 51/101/49
f 98/105/157 50/147/157 52/107/157
f 55/109/158 53/151/158 108/110/158
f 53/112/52 56/152/52 107/113/52
f 54/115/53 55/109/53 106/111/53
f 107/113/159 56/152/159 54/115/159
f 115/117/160 59/155/160 57/118/160
f 57/118/56 58/123/56 114/120/56
f 60/121/57 59/155/57 115/117/57
f 58/123/161 60/156/161 116/124/161
f 123/125/162 64/159/162 62/126/162
f 62/126/60 63/131/60 122/128/60
f 61/129/61 64/159/61 123/125/61
f 63/131/163 61/160/163 124/132/163
f 66/133/164 68/163/164 132/134/164
f 68/136/64 67/164/64 131/137/64
f 65/139/65 66/133/65 130/135/65
f 131/137/165 67/164/165 65/139/165
f 72/8/166 70/13/166 38/141/166
f 70/13/68 71/4/68 39/77/68
f 69/9/69 72/8/69 40/74/69
f 39/77/167 71/4/167 69/6/167
f 19/142/168 74/78/168 76/82/168
f 76/80/72 75/76/72 20/32/72
f 73/75/73 74/78/73 19/142/73
f 75/76/169 73/75/169 18/35/169
f 42/90/170 79/36/170 77/40/170
f 77/38/76 80/34/76 43/91/76
f 41/143/77 78/33/77 79/36/77
f 80/34/171 78/33/171 41/143/171
f 83/87/172 81/89/172 14/26/172
f 81/89/80 82/83/80 15/144/80
f 13/28/173 84/88/173 83/87/173
f 15/144/174 82/83/174 84/85/174
f 47/145/175 87/27/175 85/31/175
f 85/29/84 88/25/84 48/100/84
f 86/24/85 87/27/85 47/145/85
f 88/25/176 86/24/176 46/98/176
f 91/96/177 89/99/177 33/71/177
f 33/71/88 89/99/88 90/92/88
f 36/68/89 92/97/89 91/96/89
f 34/146/178 90/92/178 92/94/178
f 96/69/179 94/72/179 49/104/179
f 94/72/92 95/65/92 50/147/92
f 93/70/93 96/69/93 51/101/93
f 50/147/180 95/65/180 93/67/180
f 11/21/181 98/105/181 100/108/181
f 100/106/96 99/103/96 12/150/96
f 97/102/97 98/105/97 11/21/97
f 99/103/182 97/102/182 9/16/182
f 103/18/183 101/22/183 53/151/183
f 101/20/100 104/15/100 56/152/100
f 102/17/101 103/18/101 55/109/101
f 56/152/184 104/15/184 102/17/184
f 32/153/185 107/113/185 105/116/185
f 105/116/104 106/111/104 31/57/104
f 108/114/105 107/113/105 32/153/105
f 106/111/186 108/110/186 29/154/186
f 59/155/187 112/61/187 110/63/187
f 110/63/108 111/59/108 58/123/108
f 109/62/109 112/61/109 59/155/109
f 111/59/188 109/58/188 60/156/188
f 114/120/189 116/124/189 24/157/189
f 116/122/112 115/117/112 23/45/112
f 113/119/113 114/120/113 22/41/113
f 23/45/190 115/117/190 113/119/190
f 64/159/191 120/46/191 118/48/191
f 62/126/192 118/48/192 119/43/192
f 117/44/117 120/46/117 64/159/117
f 119/43/193 117/42/193 61/160/193
f 122/128/194 124/132/194 28/161/194
f 124/130/120 123/125/120 27/162/120
f 121/127/121 122/128/121 26/55/121
f 27/162/195 123/125/195 121/127/195
f 127/52/196 125/56/196 68/163/196
f 68/136/124 125/54/124 128/49/124
f 126/51/125 127/52/125 66/133/125
f 67/164/197 128/49/197 126/51/197
f 6/165/198 131/137/198 129/140/198
f 129/140/199 130/135/199 4/166/199
f 132/138/129 131/137/129 6/165/129
f 130/135/200 132/134/200 8/168/200
