# Blender v2.92.0 OBJ File: ''
# www.blender.org
mtllib tutorialEnemy.mtl
o ICO球
v 0.000000 -1.000000 0.000000
v 0.723607 -0.447220 0.525725
v -0.276388 -0.447220 0.850649
v -0.894426 -0.447216 0.000000
v -0.276388 -0.447220 -0.850649
v 0.723607 -0.447220 -0.525725
v 0.276388 0.447220 0.850649
v -0.723607 0.447220 0.525725
v -0.723607 0.447220 -0.525725
v 0.276388 0.447220 -0.850649
v 0.000000 1.000000 0.000000
v -0.162456 -0.850654 0.499995
v 0.425323 -0.850654 0.309011
v 0.262869 -0.525738 0.809012
v 0.850648 -0.525736 0.000000
v 0.425323 -0.850654 -0.309011
v -0.525730 -0.850652 0.000000
v -0.688189 -0.525736 0.499997
v -0.162456 -0.850654 -0.499995
v -0.688189 -0.525736 -0.499997
v 0.262869 -0.525738 -0.809012
v 0.000000 0.000000 1.000000
v 0.587786 0.000000 0.809017
v -0.951058 0.000000 0.309013
v -0.587786 0.000000 0.809017
v -0.587786 0.000000 -0.809017
v -0.951058 0.000000 -0.309013
v 0.587786 0.000000 -0.809017
v 0.000000 0.000000 -1.000000
v 0.688189 0.525736 0.499997
v -0.262869 0.525738 0.809012
v -0.850648 0.525736 0.000000
v -0.262869 0.525738 -0.809012
v 0.688189 0.525736 -0.499997
v 0.162456 0.850654 0.499995
v 0.525730 0.850652 0.000000
v -0.425323 0.850654 0.309011
v -0.425323 0.850654 -0.309011
v 0.162456 0.850654 -0.499995
v 0.769422 0.000000 0.559015
v 0.769422 0.000000 -0.559015
v 0.791308 0.486476 -0.249998
v 0.791308 0.486476 0.249998
v 0.900853 -0.262868 0.154506
v 0.900853 -0.262868 -0.154506
v 0.881149 -0.137457 0.375621
v 0.881149 -0.137457 -0.375621
v 0.813946 0.274223 -0.408630
v 0.813946 0.274223 0.408630
v 0.834359 0.512943 0.000000
v 1.261354 0.069513 0.516971
v 1.261354 0.069513 -0.516971
v 1.288118 0.517011 -0.232537
v 1.288118 0.517011 0.232537
v 1.389698 -0.168687 0.145779
v 1.389698 -0.168687 -0.145778
v 1.370701 -0.048927 0.356968
v 1.370701 -0.048927 -0.356968
v 1.309078 0.318170 -0.381122
v 1.309078 0.318170 0.381122
v 1.331351 0.542028 0.000000
v 1.393764 -0.201178 0.154506
v 1.374060 -0.075767 0.375621
v 1.262333 0.061690 0.559015
v 1.393764 -0.201178 -0.154506
v 1.374060 -0.075767 -0.375621
v 1.262333 0.061690 -0.559015
v 1.306858 0.335913 -0.408630
v 1.284219 0.548166 -0.249998
v 1.284219 0.548166 0.249999
v 1.306858 0.335913 0.408630
v 1.327270 0.574633 0.000000
v 0.162651 -0.069324 0.516971
v 0.162651 -0.069324 -0.516971
v 0.189416 0.378174 -0.232537
v 0.189416 0.378174 0.232537
v 0.290995 -0.307524 0.145779
v 0.290995 -0.307524 -0.145778
v 0.271998 -0.187764 0.356968
v 0.271999 -0.187764 -0.356968
v 0.210375 0.179333 -0.381122
v 0.210375 0.179333 0.381122
v 0.232648 0.403191 0.000000
vt 0.818181 0.000000
vt 0.772726 0.078731
vt 0.863635 0.078731
vt 0.727272 0.157461
vt 0.681818 0.078731
vt 0.636363 0.157461
vt 0.090909 0.000000
vt 0.045454 0.078731
vt 0.136363 0.078731
vt 0.272727 0.000000
vt 0.227273 0.078731
vt 0.318182 0.078731
vt 0.454545 0.000000
vt 0.409090 0.078731
vt 0.500000 0.078731
vt 0.909090 0.157461
vt 0.818181 0.157461
vt 0.863635 0.236191
vt 0.181818 0.157461
vt 0.090909 0.157461
vt 0.136363 0.236191
vt 0.363636 0.157461
vt 0.272727 0.157461
vt 0.318182 0.236191
vt 0.545454 0.157461
vt 0.454545 0.157461
vt 0.500000 0.236191
vt 0.954545 0.236191
vt 0.227273 0.236191
vt 0.409090 0.236191
vt 0.818181 0.314921
vt 0.727272 0.314921
vt 0.772726 0.393651
vt 1.000000 0.314921
vt 0.909091 0.314921
vt 0.954545 0.393651
vt 0.272727 0.314921
vt 0.181818 0.314921
vt 0.227273 0.393651
vt 0.454545 0.314921
vt 0.363636 0.314921
vt 0.409090 0.393651
vt 0.590909 0.314921
vt 0.545454 0.314921
vt 0.590909 0.393651
vt 0.628958 0.327748
vt 0.500000 0.393651
vt 0.545454 0.472382
vt 0.318182 0.393651
vt 0.363636 0.472382
vt 0.136363 0.393651
vt 0.181818 0.472382
vt 0.090909 0.314921
vt 0.863635 0.393651
vt 0.909090 0.472382
vt 0.681818 0.393651
vt 0.727272 0.472382
vt 0.567200 0.277256
vt 0.545454 0.236191
vt 0.772726 0.236191
vt 0.705526 0.277256
vt 0.681818 0.314921
vt 0.045454 0.236191
vt 0.000000 0.157461
vt 0.659090 0.196826
vt 0.613636 0.196826
vt 0.590909 0.078731
vt 0.636363 0.000000
vt 0.695788 0.211993
vt 0.727272 0.236191
vt 0.576938 0.211993
vt 0.727272 0.236191
vt 0.705526 0.277256
vt 0.643768 0.327748
vt 0.658155 0.201559
vt 0.614649 0.201559
vt 0.614649 0.201559
vt 0.658155 0.201559
vt 0.659090 0.196826
vt 0.695788 0.211993
vt 0.567200 0.277256
vt 0.545454 0.236191
vt 0.576938 0.211993
vt 0.613636 0.196826
vt 0.681818 0.314921
vt 0.643768 0.327748
vt 0.628958 0.327748
vt 0.590909 0.314921
vt 0.693076 0.216744
vt 0.720496 0.237420
vt 0.579737 0.216744
vt 0.552281 0.237420
vt 0.594924 0.310280
vt 0.572035 0.275017
vt 0.700853 0.275017
vt 0.678781 0.310280
vt 0.642324 0.320554
vt 0.579737 0.216744
vt 0.552281 0.237420
vt 0.572035 0.275017
vt 0.594924 0.310280
vt 0.642324 0.320554
vt 0.678781 0.310280
vt 0.700853 0.275017
vt 0.720496 0.237420
vt 0.693076 0.216744
vn 0.1024 -0.9435 0.3151
vn 0.7002 -0.6617 0.2680
vn -0.2680 -0.9435 0.1947
vn -0.2680 -0.9435 -0.1947
vn 0.1024 -0.9435 -0.3151
vn 0.0247 -0.3304 0.9435
vn -0.8897 -0.3304 0.3151
vn -0.5746 -0.3304 -0.7488
vn 0.5346 -0.3304 -0.7779
vn -0.3066 -0.1256 0.9435
vn -0.9921 -0.1256 0.0000
vn -0.3066 -0.1256 -0.9435
vn 0.4089 0.6617 0.6284
vn -0.4713 0.6617 0.5831
vn -0.7002 0.6617 -0.2680
vn 0.0385 0.6617 -0.7488
vn 0.7240 0.6617 -0.1947
vn 0.2680 0.9435 -0.1947
vn 0.4911 0.7947 -0.3568
vn 0.4089 0.6617 -0.6284
vn -0.1024 0.9435 -0.3151
vn -0.1876 0.7947 -0.5773
vn -0.4713 0.6617 -0.5831
vn -0.3313 0.9435 0.0000
vn -0.6071 0.7947 0.0000
vn -0.7002 0.6617 0.2680
vn -0.1024 0.9435 0.3151
vn -0.1876 0.7947 0.5773
vn 0.0385 0.6617 0.7488
vn 0.2680 0.9435 0.1947
vn 0.4911 0.7947 0.3568
vn 0.8897 0.3304 -0.3151
vn 0.7947 0.1876 -0.5773
vn 0.5746 0.3304 -0.7488
vn -0.0247 0.3304 -0.9435
vn -0.3035 0.1876 -0.9342
vn -0.5346 0.3304 -0.7779
vn -0.9050 0.3304 -0.2680
vn -0.9822 0.1876 0.0000
vn -0.9050 0.3304 0.2680
vn -0.5346 0.3304 0.7779
vn -0.3035 0.1876 0.9342
vn -0.0247 0.3304 0.9435
vn 0.5746 0.3304 0.7488
vn 0.8897 0.3304 0.3151
vn 0.3066 0.1256 -0.9435
vn 0.3035 -0.1876 -0.9342
vn 0.0247 -0.3304 -0.9435
vn -0.8026 0.1256 -0.5831
vn -0.7947 -0.1876 -0.5773
vn -0.8897 -0.3304 -0.3151
vn -0.8026 0.1256 0.5831
vn -0.7947 -0.1876 0.5773
vn -0.5746 -0.3304 0.7488
vn 0.3066 0.1256 0.9435
vn 0.3035 -0.1876 0.9342
vn 0.5346 -0.3304 0.7779
vn 0.9822 -0.1876 0.0000
vn 0.4713 -0.6617 -0.5831
vn 0.1876 -0.7947 -0.5773
vn -0.0385 -0.6617 -0.7488
vn -0.4089 -0.6617 -0.6284
vn -0.4911 -0.7947 -0.3568
vn -0.7240 -0.6617 -0.1947
vn -0.7240 -0.6617 0.1947
vn -0.4911 -0.7947 0.3568
vn -0.4089 -0.6617 0.6284
vn 0.7002 -0.6617 -0.2680
vn 0.6071 -0.7947 0.0000
vn 0.3313 -0.9435 0.0000
vn -0.0385 -0.6617 0.7488
vn 0.1876 -0.7947 0.5773
vn 0.4713 -0.6617 0.5831
vn 0.9050 -0.3304 0.2680
vn 0.8026 -0.1256 0.5831
vn 0.9050 -0.3304 -0.2680
vn 0.8026 -0.1256 -0.5831
vn -0.0610 0.4875 0.8710
vn 0.7947 0.1876 0.5773
vn 0.7240 0.6617 0.1947
vn -0.1254 0.9921 0.0000
vn 0.1077 -0.8606 0.4977
vn -0.0610 0.4875 -0.8710
vn 0.1077 -0.8606 -0.4977
vn -0.1238 0.9888 0.0834
vn 0.0961 -0.7675 0.6338
vn 0.0961 -0.7675 -0.6338
vn -0.1238 0.9888 -0.0834
vn 0.1242 -0.9923 0.0000
vn -0.0741 0.5919 0.8026
vn -0.0741 0.5919 -0.8026
vn 0.9913 0.1308 0.0146
vn 0.8599 0.4673 0.2054
vn 0.9923 0.1242 0.0000
vn 0.9913 0.1308 -0.0146
vn 0.8599 0.4673 -0.2054
vn 0.9934 0.1139 -0.0114
vn 0.9875 -0.1526 -0.0394
vn 0.9934 0.1139 0.0114
vn 0.9875 -0.1526 0.0394
vn 0.9804 0.0726 0.1831
vn 0.9804 0.0726 -0.1831
vn 0.9921 0.1254 0.0000
vn 0.1249 -0.9887 -0.0831
vn 0.0616 -0.4876 0.8709
vn -0.1087 0.8605 0.4977
vn 0.1249 -0.9887 0.0831
vn -0.1087 0.8605 -0.4977
vn 0.0748 -0.5918 -0.8026
vn -0.0969 0.7671 0.6341
vn -0.0969 0.7671 -0.6341
vn 0.0616 -0.4876 -0.8709
vn 0.0748 -0.5918 0.8026
usemtl マテリアル
s off
f 1/1/1 13/2/1 12/3/1
f 2/4/2 13/5/2 15/6/2
f 1/7/3 12/8/3 17/9/3
f 1/10/4 17/11/4 19/12/4
f 1/13/5 19/14/5 16/15/5
f 3/16/6 14/17/6 22/18/6
f 4/19/7 18/20/7 24/21/7
f 5/22/8 20/23/8 26/24/8
f 6/25/9 21/26/9 28/27/9
f 3/16/10 22/18/10 25/28/10
f 4/19/11 24/21/11 27/29/11
f 5/22/12 26/24/12 29/30/12
f 7/31/13 30/32/13 35/33/13
f 8/34/14 31/35/14 37/36/14
f 9/37/15 32/38/15 38/39/15
f 10/40/16 33/41/16 39/42/16
f 42/43/17 34/44/17 36/45/17 50/46/17
f 36/45/18 39/47/18 11/48/18
f 36/45/19 34/44/19 39/47/19
f 34/44/20 10/40/20 39/47/20
f 39/42/21 38/49/21 11/50/21
f 39/42/22 33/41/22 38/49/22
f 33/41/23 9/37/23 38/49/23
f 38/39/24 37/51/24 11/52/24
f 38/39/25 32/38/25 37/51/25
f 32/38/26 8/53/26 37/51/26
f 37/36/27 35/54/27 11/55/27
f 37/36/28 31/35/28 35/54/28
f 31/35/29 7/31/29 35/54/29
f 35/33/30 36/56/30 11/57/30
f 35/33/31 30/32/31 36/56/31
f 48/58/32 34/44/32 42/43/32
f 41/59/33 28/27/33 34/44/33 48/58/33
f 28/27/34 10/40/34 34/44/34
f 29/30/35 33/41/35 10/40/35
f 29/30/36 26/24/36 33/41/36
f 26/24/37 9/37/37 33/41/37
f 27/29/38 32/38/38 9/37/38
f 27/29/39 24/21/39 32/38/39
f 24/21/40 8/53/40 32/38/40
f 25/28/41 31/35/41 8/34/41
f 25/28/42 22/18/42 31/35/42
f 22/18/43 7/31/43 31/35/43
f 23/60/44 30/32/44 7/31/44
f 49/61/45 43/62/45 30/32/45
f 28/27/46 29/30/46 10/40/46
f 28/27/47 21/26/47 29/30/47
f 21/26/48 5/22/48 29/30/48
f 26/24/49 27/29/49 9/37/49
f 26/24/50 20/23/50 27/29/50
f 20/23/51 4/19/51 27/29/51
f 24/21/52 25/63/52 8/53/52
f 24/21/53 18/20/53 25/63/53
f 18/20/54 3/64/54 25/63/54
f 22/18/55 23/60/55 7/31/55
f 22/18/56 14/17/56 23/60/56
f 14/17/57 2/4/57 23/60/57
f 44/65/58 15/6/58 45/66/58
f 16/15/59 21/26/59 6/25/59
f 16/15/60 19/14/60 21/26/60
f 19/14/61 5/22/61 21/26/61
f 19/12/62 20/23/62 5/22/62
f 19/12/63 17/11/63 20/23/63
f 17/11/64 4/19/64 20/23/64
f 17/9/65 18/20/65 4/19/65
f 17/9/66 12/8/66 18/20/66
f 12/8/67 3/64/67 18/20/67
f 15/6/68 16/67/68 6/25/68
f 15/6/69 13/5/69 16/67/69
f 13/5/70 1/68/70 16/67/70
f 12/3/71 14/17/71 3/16/71
f 12/3/72 13/2/72 14/17/72
f 13/2/73 2/4/73 14/17/73
f 2/4/74 15/6/74 44/65/74 46/69/74
f 2/4/75 46/69/75 40/70/75 23/60/75
f 15/6/76 6/25/76 47/71/76 45/66/76
f 6/25/77 28/27/77 41/59/77 47/71/77
f 49/61/78 40/70/78 64/72/78 71/73/78
f 23/60/79 40/70/79 49/61/79 30/32/79
f 30/32/80 43/62/80 50/74/80 36/56/80
f 55/75/81 56/76/81 78/77/81 77/78/81
f 46/69/82 44/65/82 62/79/82 63/80/82
f 41/59/83 48/58/83 68/81/83 67/82/83
f 45/66/84 47/71/84 66/83/84 65/84/84
f 50/74/85 43/62/85 70/85/85 72/86/85
f 40/70/86 46/69/86 63/80/86 64/72/86
f 47/71/87 41/59/87 67/82/87 66/83/87
f 42/43/88 50/46/88 72/87/88 69/88/88
f 44/65/89 45/66/89 65/84/89 62/79/89
f 43/62/90 49/61/90 71/73/90 70/85/90
f 48/58/91 42/43/91 69/88/91 68/81/91
f 55/75/92 57/89/92 63/80/92 62/79/92
f 57/89/93 51/90/93 64/72/93 63/80/93
f 56/76/94 55/75/94 62/79/94 65/84/94
f 58/91/95 56/76/95 65/84/95 66/83/95
f 52/92/96 58/91/96 66/83/96 67/82/96
f 53/93/97 59/94/97 68/81/97 69/88/97
f 59/94/98 52/92/98 67/82/98 68/81/98
f 60/95/99 54/96/99 70/85/99 71/73/99
f 51/90/100 60/95/100 71/73/100 64/72/100
f 54/96/101 61/97/101 72/86/101 70/85/101
f 61/97/102 53/93/102 69/88/102 72/86/102
f 78/77/103 80/98/103 74/99/103 81/100/103 75/101/103 83/102/103 76/103/103 82/104/103 73/105/103 79/106/103 77/78/103
f 61/97/104 54/96/104 76/103/104 83/102/104
f 52/92/105 59/94/105 81/100/105 74/99/105
f 56/76/106 58/91/106 80/98/106 78/77/106
f 53/93/107 61/97/107 83/102/107 75/101/107
f 57/89/108 55/75/108 77/78/108 79/106/108
f 54/96/109 60/95/109 82/104/109 76/103/109
f 58/91/110 52/92/110 74/99/110 80/98/110
f 51/90/111 57/89/111 79/106/111 73/105/111
f 60/95/112 51/90/112 73/105/112 82/104/112
f 59/94/113 53/93/113 75/101/113 81/100/113
